<svg width="235" height="189" viewBox="0 0 235 189" fill="none" xmlns="http://www.w3.org/2000/svg">
<path d="M143.088 119.738C143.088 107.094 111.651 96.8441 72.8702 96.8441C34.0899 96.8441 2.65225 107.094 2.65225 119.738M143.088 119.738C143.049 120.209 143.003 120.69 142.951 121.18M143.088 119.738C143.088 120.223 143.042 120.704 142.951 121.18M2.65225 119.738C2.65225 120.223 2.69838 120.704 2.7893 121.18M2.65225 119.738C2.6913 120.209 2.73692 120.69 2.7893 121.18M142.951 121.18C140.669 133.153 110.165 142.633 72.8702 142.633C69.6945 147.794 60.4455 157.341 48.8551 154.235C37.2647 151.129 33.6332 142.548 33.2663 138.646C15.9217 134.777 4.17251 128.436 2.7893 121.18M142.951 121.18C140.519 143.944 123.509 186.763 72.8702 186.763C22.2318 186.763 5.22156 143.944 2.7893 121.18M5.80377 54.7266C8.36668 51.375 17.4596 43.2304 37.8053 44.6499M5.80377 54.7266C13.6633 32.8959 41.4045 -7.54418 89.4929 5.34108C137.581 18.2263 145.016 62.9541 142.723 83.7073M5.80377 54.7266C3.74033 61.051 12.4038 77.127 63.5654 90.8357C114.727 104.544 137.654 91.7953 142.723 83.7073M142.723 83.7073C139.174 75.8214 121.137 58.2257 78.5533 49.709M78.5533 49.709C78.5533 61.1333 69.2921 70.3945 57.8677 70.3945C46.4434 70.3945 37.1822 61.1333 37.1822 49.709C37.1822 38.2846 46.4434 29.0234 57.8677 29.0234C69.2921 29.0234 78.5533 38.2846 78.5533 49.709ZM68.5379 49.709C68.5379 55.9452 63.7607 61.0007 57.8677 61.0007C51.9748 61.0007 47.1976 55.9452 47.1976 49.709C47.1976 43.4727 51.9748 38.4172 57.8677 38.4172C63.7607 38.4172 68.5379 43.4727 68.5379 49.709Z" stroke="#fafafa" stroke-width="4"/>
<path d="M172.746 69.2423L179.041 45.751L201.543 51.7804L207.208 30.6382L174.815 21.9585L168.851 44.2134L156.364 40.8674L162.658 17.3761L173.91 20.3908L176.924 9.13971L211.79 18.482L208.776 29.7331L220.15 32.781L213.856 56.2723L202.481 53.2245L199.5 64.3519L188.372 61.3703L185.357 72.6214L172.746 69.2423ZM166.75 91.6209L170.063 79.257L182.674 82.6362L179.361 95L166.75 91.6209Z" fill="#fafafa"/>
<path d="M200.757 101.988L207.515 90.282L218.728 96.7557L224.81 86.2206L208.669 76.9013L202.266 87.9909L196.044 84.3983L202.802 72.6927L208.409 75.9295L211.645 70.3231L229.019 80.3538L225.782 85.9602L231.45 89.2327L224.692 100.938L219.024 97.6659L215.823 103.211L210.278 100.009L207.041 105.616L200.757 101.988ZM194.319 113.139L197.876 106.978L204.16 110.606L200.603 116.767L194.319 113.139Z" fill="#fafafa"/>
</svg>